<svg width="18" height="17" viewBox="0 0 18 17" fill="none" xmlns="http://www.w3.org/2000/svg">
<path fill-rule="evenodd" clip-rule="evenodd" d="M5.0625 1.83494C5.38848 1.85482 5.71667 1.8701 6.04687 1.88067V14.7903C5.71667 14.798 5.38849 14.8103 5.0625 14.8273V1.83494ZM2.39062 1.56362C2.57716 1.59032 2.76468 1.61549 2.95312 1.63911V15.0044C2.76468 15.0264 2.57717 15.0499 2.39062 15.0749V1.56362ZM0 1.12655C0.0934309 1.14748 0.187183 1.16801 0.28125 1.18814V15.4314C0.187188 15.4507 0.0934364 15.4704 0 15.4904L0 1.12655ZM18 16.7531V0C17.2362 0.292716 16.4379 0.555434 15.6094 0.785406V15.9553C16.4382 16.1899 17.2366 16.4567 18 16.7531ZM13.5 15.4424V1.28618C12.9024 1.40506 12.2926 1.50761 11.6719 1.59296V15.1237C12.2926 15.2133 12.9025 15.3198 13.5 15.4424ZM9.5625 14.8884V1.8127C9.09838 1.8459 8.62944 1.86964 8.15625 1.88357V14.8061C8.62941 14.8241 9.09835 14.8516 9.5625 14.8884Z" fill="white"/>
</svg>
