<svg width="17" height="17" viewBox="0 0 17 17" fill="none" xmlns="http://www.w3.org/2000/svg">
<path d="M6.17413 17L5.83582 14.28C5.65257 14.2092 5.47975 14.1242 5.31736 14.025C5.15498 13.9258 4.99653 13.8196 4.84204 13.7063L2.32587 14.7688L0 10.7313L2.17786 9.07375C2.16376 8.97458 2.15672 8.87882 2.15672 8.78645V8.21355C2.15672 8.12118 2.16376 8.02542 2.17786 7.92625L0 6.26875L2.32587 2.23125L4.84204 3.29375C4.9971 3.18042 5.1592 3.07417 5.32836 2.975C5.49751 2.87583 5.66667 2.79083 5.83582 2.72L6.17413 0H10.8259L11.1642 2.72C11.3474 2.79083 11.5202 2.87583 11.6826 2.975C11.845 3.07417 12.0035 3.18042 12.158 3.29375L14.6741 2.23125L17 6.26875L14.8221 7.92625C14.8362 8.02542 14.8433 8.12118 14.8433 8.21355V8.78645C14.8433 8.87882 14.8292 8.97458 14.801 9.07375L16.9789 10.7313L14.653 14.7688L12.158 13.7063C12.0029 13.8196 11.8408 13.9258 11.6716 14.025C11.5025 14.1242 11.3333 14.2092 11.1642 14.28L10.8259 17H6.17413ZM8.54229 11.475C9.35987 11.475 10.0576 11.1846 10.6356 10.6038C11.2135 10.0229 11.5025 9.32167 11.5025 8.5C11.5025 7.67833 11.2135 6.97708 10.6356 6.39625C10.0576 5.81542 9.35987 5.525 8.54229 5.525C7.71061 5.525 7.00919 5.81542 6.43801 6.39625C5.86683 6.97708 5.58153 7.67833 5.58209 8.5C5.58209 9.32167 5.8674 10.0229 6.43801 10.6038C7.00862 11.1846 7.71005 11.475 8.54229 11.475ZM8.54229 9.775C8.18988 9.775 7.8902 9.6509 7.64323 9.4027C7.39627 9.1545 7.27307 8.8536 7.27363 8.5C7.27363 8.14583 7.39711 7.84465 7.64408 7.59645C7.89105 7.34825 8.19045 7.22443 8.54229 7.225C8.89469 7.225 9.19438 7.3491 9.44134 7.5973C9.68831 7.8455 9.81151 8.1464 9.81095 8.5C9.81095 8.85417 9.68746 9.15535 9.4405 9.40355C9.19353 9.65175 8.89413 9.77557 8.54229 9.775ZM7.65423 15.3H9.32463L9.62065 13.0475C10.0576 12.9342 10.463 12.7676 10.8369 12.5477C11.2107 12.3278 11.5524 12.0624 11.8619 11.7513L13.9552 12.6225L14.7799 11.1775L12.9614 9.79625C13.0319 9.59792 13.0813 9.3891 13.1095 9.1698C13.1376 8.9505 13.1517 8.72723 13.1517 8.5C13.1517 8.27333 13.1376 8.05035 13.1095 7.83105C13.0813 7.61175 13.0319 7.40265 12.9614 7.20375L14.7799 5.8225L13.9552 4.3775L11.8619 5.27C11.5518 4.94417 11.2101 4.6716 10.8369 4.4523C10.4636 4.233 10.0582 4.0664 9.62065 3.9525L9.34577 1.7H7.67537L7.37935 3.9525C6.94237 4.06583 6.53725 4.23243 6.16398 4.4523C5.79071 4.67217 5.44874 4.93765 5.13806 5.24875L3.04478 4.3775L2.22015 5.8225L4.03856 7.1825C3.96808 7.395 3.91874 7.6075 3.89055 7.82C3.86236 8.0325 3.84826 8.25917 3.84826 8.5C3.84826 8.72667 3.86236 8.94625 3.89055 9.15875C3.91874 9.37125 3.96808 9.58375 4.03856 9.79625L2.22015 11.1775L3.04478 12.6225L5.13806 11.73C5.44818 12.0558 5.79015 12.3287 6.16398 12.5486C6.53781 12.7684 6.94294 12.9347 7.37935 13.0475L7.65423 15.3Z" fill="white"/>
</svg>
