<svg width="17" height="17" viewBox="0 0 17 17" fill="none" xmlns="http://www.w3.org/2000/svg">
<path d="M8.5 0C9.62717 0 10.7082 0.447766 11.5052 1.2448C12.3022 2.04183 12.75 3.12283 12.75 4.25C12.75 5.37717 12.3022 6.45817 11.5052 7.2552C10.7082 8.05223 9.62717 8.5 8.5 8.5C7.37283 8.5 6.29183 8.05223 5.4948 7.2552C4.69777 6.45817 4.25 5.37717 4.25 4.25C4.25 3.12283 4.69777 2.04183 5.4948 1.2448C6.29183 0.447766 7.37283 0 8.5 0ZM8.5 2.125C7.93641 2.125 7.39591 2.34888 6.9974 2.7474C6.59888 3.14591 6.375 3.68641 6.375 4.25C6.375 4.81359 6.59888 5.35409 6.9974 5.7526C7.39591 6.15112 7.93641 6.375 8.5 6.375C9.06359 6.375 9.60409 6.15112 10.0026 5.7526C10.4011 5.35409 10.625 4.81359 10.625 4.25C10.625 3.68641 10.4011 3.14591 10.0026 2.7474C9.60409 2.34888 9.06359 2.125 8.5 2.125ZM8.5 9.5625C11.3369 9.5625 17 10.9756 17 13.8125V17H0V13.8125C0 10.9756 5.66312 9.5625 8.5 9.5625ZM8.5 11.5812C5.34437 11.5812 2.01875 13.1325 2.01875 13.8125V14.9813H14.9813V13.8125C14.9813 13.1325 11.6556 11.5812 8.5 11.5812Z" fill="white"/>
</svg>
