<svg width="207" height="33" viewBox="0 0 207 33" fill="none" xmlns="http://www.w3.org/2000/svg">
<path fill-rule="evenodd" clip-rule="evenodd" d="M7.37834 9.68171C7.85344 9.71126 8.33176 9.73397 8.81301 9.74968V28.9358C8.33176 28.9472 7.85344 28.9655 7.37834 28.9908V9.68171ZM3.48421 9.27848C3.75608 9.31817 4.02937 9.35557 4.30403 9.39067V29.254C4.02939 29.2866 3.7561 29.3215 3.48421 29.3588V9.27848ZM0 8.62891C0.136171 8.66001 0.27281 8.69053 0.409908 8.72044V29.8886C0.272817 29.9172 0.136179 29.9465 0 29.9763V8.62891ZM26.2341 31.8529V6.95465C25.121 7.38968 23.9573 7.78013 22.7499 8.12191V30.6672C23.9578 31.0158 25.1215 31.4124 26.2341 31.8529ZM19.6756 29.9048V8.86616C18.8046 9.04283 17.9158 9.19524 17.0112 9.32208V29.4312C17.9158 29.5644 18.8047 29.7227 19.6756 29.9048ZM13.9369 29.0816V9.64866C13.2604 9.69801 12.577 9.73328 11.8873 9.75399V28.9593C12.5769 28.9859 13.2604 29.0269 13.9369 29.0816Z" fill="white"/>
<path d="M41.1953 24.5352L43.7441 23.1992C44.2246 24.4062 44.8691 25.2793 45.6777 25.8184C46.4863 26.3574 47.5352 26.627 48.8242 26.627C49.9492 26.627 50.8398 26.4043 51.4961 25.959C52.1641 25.502 52.498 24.8984 52.498 24.1484C52.498 23.3164 52.1641 22.6719 51.4961 22.2148C50.8398 21.7461 49.6738 21.3945 47.998 21.1602C44.084 20.5859 42.127 18.9512 42.127 16.2559C42.127 14.8848 42.7012 13.7715 43.8496 12.916C45.0332 12.0254 46.5098 11.5801 48.2793 11.5801C51.291 11.5801 53.3418 12.8398 54.4316 15.3594L52.0234 16.6953C51.4375 14.9609 50.1895 14.0938 48.2793 14.0938C47.3301 14.0938 46.5391 14.2988 45.9062 14.709C45.2852 15.1074 44.9746 15.6348 44.9746 16.291C44.9746 17.0176 45.3145 17.5742 45.9941 17.9609C46.6738 18.3477 47.8574 18.6582 49.5449 18.8926C53.5293 19.4316 55.5215 21.1191 55.5215 23.9551C55.5215 25.5254 54.8652 26.8203 53.5527 27.8398C52.252 28.8477 50.6289 29.3516 48.6836 29.3516C46.7969 29.3516 45.2031 28.9238 43.9023 28.0684C42.6133 27.2012 41.7109 26.0234 41.1953 24.5352ZM58.8191 26.8379C57.2137 25.1504 56.4109 23.0293 56.4109 20.4746C56.4109 17.9199 57.2137 15.7988 58.8191 14.1113C60.4246 12.4238 62.4988 11.5801 65.0418 11.5801C66.741 11.5801 68.2527 11.9727 69.577 12.7578C70.9012 13.5312 71.9207 14.5918 72.6355 15.9395C73.3621 17.2871 73.7254 18.7988 73.7254 20.4746C73.7254 23.0176 72.9109 25.1328 71.282 26.8203C69.6531 28.5078 67.573 29.3516 65.0418 29.3516C62.4988 29.3516 60.4246 28.5137 58.8191 26.8379ZM70.5262 20.4746C70.5262 18.6699 70.0105 17.2168 68.9793 16.1152C67.9832 14.9668 66.6707 14.3926 65.0418 14.3926C63.4598 14.3926 62.1531 14.9609 61.1219 16.0977C60.0906 17.2344 59.575 18.6934 59.575 20.4746C59.575 22.2559 60.0906 23.7148 61.1219 24.8516C62.1531 25.9883 63.4598 26.5566 65.0418 26.5566C66.6473 26.5566 67.9598 25.9941 68.9793 24.8691C70.0105 23.7324 70.5262 22.2676 70.5262 20.4746ZM87.359 11.9316H90.4879V29H87.359V26.1172C86.7613 27.1367 85.982 27.9336 85.0211 28.5078C84.0719 29.0703 82.9879 29.3516 81.7691 29.3516C79.8707 29.3516 78.3766 28.7949 77.2867 27.6816C76.1969 26.5566 75.652 24.957 75.652 22.8828V11.9316H78.7457V22.1621C78.7457 23.6387 79.0738 24.752 79.7301 25.502C80.3863 26.252 81.3414 26.627 82.5953 26.627C83.9781 26.627 85.1148 26.1113 86.0055 25.0801C86.9078 24.0488 87.359 22.6895 87.359 21.002V11.9316ZM96.5629 29H93.4691V11.9316H96.5629V14.709C97.1605 13.7129 97.9457 12.9453 98.9184 12.4062C99.9027 11.8555 100.993 11.5801 102.188 11.5801C104.028 11.5801 105.487 12.1426 106.565 13.2676C107.655 14.3809 108.2 15.9277 108.2 17.9082V29H105.071V18.8398C105.071 17.3633 104.731 16.2383 104.051 15.4648C103.371 14.6914 102.411 14.3047 101.168 14.3047C99.8441 14.3047 98.7426 14.7969 97.8637 15.7812C96.9965 16.7539 96.5629 18.043 96.5629 19.6484V29ZM110.179 20.5801C110.179 17.9316 110.917 15.7695 112.394 14.0938C113.87 12.418 115.769 11.5801 118.089 11.5801C119.39 11.5801 120.544 11.8848 121.552 12.4941C122.571 13.1035 123.363 13.9473 123.925 15.0254V3.79297H127.054V29H124.066V25.9414C123.48 26.9844 122.665 27.8164 121.622 28.4375C120.579 29.0469 119.425 29.3516 118.159 29.3516C115.804 29.3516 113.882 28.543 112.394 26.9258C110.917 25.2969 110.179 23.1816 110.179 20.5801ZM124.066 20.5449C124.066 18.7402 123.521 17.2637 122.431 16.1152C121.341 14.9668 120.087 14.3926 118.669 14.3926C117.216 14.3926 115.95 14.9609 114.872 16.0977C113.806 17.2227 113.273 18.7051 113.273 20.5449C113.273 22.3965 113.8 23.8672 114.855 24.957C115.921 26.0469 117.193 26.5918 118.669 26.5918C119.349 26.5918 120.005 26.457 120.638 26.1875C121.282 25.9062 121.857 25.5137 122.361 25.0098C122.876 24.5059 123.286 23.8672 123.591 23.0938C123.907 22.3203 124.066 21.4707 124.066 20.5449ZM131.863 29V14.5684H128.049V11.9316H131.863V9.34766C131.863 7.53125 132.367 6.0957 133.375 5.04102C134.395 3.97461 135.818 3.44141 137.646 3.44141C139.475 3.44141 140.875 3.89844 141.848 4.8125C142.82 5.72656 143.307 6.95117 143.307 8.48633C143.307 8.87305 143.295 9.13672 143.271 9.27734H140.354L140.389 8.62695C140.389 7.81836 140.143 7.19141 139.65 6.74609C139.158 6.28906 138.49 6.06055 137.646 6.06055C135.854 6.06055 134.957 7.17969 134.957 9.41797V11.9316H139.773V14.5684H134.957V29H131.863ZM153.284 11.9316H156.413V29H153.284V26.1172C152.686 27.1367 151.907 27.9336 150.946 28.5078C149.997 29.0703 148.913 29.3516 147.694 29.3516C145.796 29.3516 144.302 28.7949 143.212 27.6816C142.122 26.5566 141.577 24.957 141.577 22.8828V11.9316H144.671V22.1621C144.671 23.6387 144.999 24.752 145.655 25.502C146.311 26.252 147.266 26.627 148.52 26.627C149.903 26.627 151.04 26.1113 151.93 25.0801C152.833 24.0488 153.284 22.6895 153.284 21.002V11.9316ZM158.181 24.5352L160.73 23.1992C161.211 24.4062 161.855 25.2793 162.664 25.8184C163.472 26.3574 164.521 26.627 165.81 26.627C166.935 26.627 167.826 26.4043 168.482 25.959C169.15 25.502 169.484 24.8984 169.484 24.1484C169.484 23.3164 169.15 22.6719 168.482 22.2148C167.826 21.7461 166.66 21.3945 164.984 21.1602C161.07 20.5859 159.113 18.9512 159.113 16.2559C159.113 14.8848 159.687 13.7715 160.836 12.916C162.019 12.0254 163.496 11.5801 165.265 11.5801C168.277 11.5801 170.328 12.8398 171.418 15.3594L169.009 16.6953C168.423 14.9609 167.175 14.0938 165.265 14.0938C164.316 14.0938 163.525 14.2988 162.892 14.709C162.271 15.1074 161.961 15.6348 161.961 16.291C161.961 17.0176 162.3 17.5742 162.98 17.9609C163.66 18.3477 164.843 18.6582 166.531 18.8926C170.515 19.4316 172.507 21.1191 172.507 23.9551C172.507 25.5254 171.851 26.8203 170.539 27.8398C169.238 28.8477 167.615 29.3516 165.67 29.3516C163.783 29.3516 162.189 28.9238 160.888 28.0684C159.599 27.2012 158.697 26.0234 158.181 24.5352ZM186.932 22.8125L189.621 23.8496C189.036 25.6191 188.098 26.9785 186.809 27.9277C185.52 28.877 183.914 29.3516 181.993 29.3516C179.461 29.3516 177.393 28.5312 175.788 26.8906C174.194 25.25 173.397 23.0703 173.397 20.3516C173.397 18.7227 173.731 17.2461 174.399 15.9219C175.079 14.5859 176.039 13.5312 177.282 12.7578C178.536 11.9727 179.954 11.5801 181.536 11.5801C183.821 11.5801 185.655 12.2363 187.038 13.5488C188.432 14.8379 189.129 16.6016 189.129 18.8398C189.129 19.5898 189.059 20.2871 188.918 20.9316H176.561C176.573 22.7246 177.088 24.125 178.108 25.1328C179.127 26.1289 180.422 26.627 181.993 26.627C184.571 26.627 186.217 25.3555 186.932 22.8125ZM176.561 18.6992H186.036L186.071 18.207C186.071 17.0117 185.637 16.0625 184.77 15.3594C183.914 14.6562 182.825 14.3047 181.5 14.3047C180.176 14.3047 179.057 14.7031 178.143 15.5C177.241 16.2852 176.713 17.3516 176.561 18.6992Z" fill="white"/>
</svg>
