<svg width="63" height="63" viewBox="0 0 63 63" fill="none" xmlns="http://www.w3.org/2000/svg">
<g clip-path="url(#clip0_8_1025)">
<path d="M23.625 0H0V23.625H23.625V0ZM19.6875 19.6875H3.9375V3.9375H19.6875V19.6875Z" fill="white"/>
<path d="M7.875 7.875H15.75V15.75H7.875V7.875ZM0 63H23.625V39.375H0V63ZM3.9375 43.3125H19.6875V59.0625H3.9375V43.3125Z" fill="white"/>
<path d="M7.875 47.25H15.75V55.125H7.875V47.25ZM39.375 0V23.625H63V0H39.375ZM59.0625 19.6875H43.3125V3.9375H59.0625V19.6875Z" fill="white"/>
<path d="M47.25 7.875H55.125V15.75H47.25V7.875ZM7.875 27.5625H0V35.4375H11.8125V31.5H7.875V27.5625ZM27.5625 35.4375H35.4375V43.3125H27.5625V35.4375ZM11.8125 27.5625H19.6875V31.5H11.8125V27.5625ZM35.4375 47.25H27.5625V51.1875H31.5V55.125H35.4375V51.1875V47.25ZM23.625 27.5625V31.5H19.6875V35.4375H27.5625V27.5625H23.625ZM31.5 15.75H35.4375V23.625H31.5V15.75ZM35.4375 31.5V35.4375H43.3125V27.5625H31.5V31.5H35.4375ZM27.5625 23.625H31.5V27.5625H27.5625V23.625ZM35.4375 55.125H43.3125V63H35.4375V55.125ZM27.5625 55.125H31.5V63H27.5625V55.125ZM35.4375 43.3125H39.375V47.25H35.4375V43.3125ZM35.4375 11.8125V3.9375H31.5V0H27.5625V15.75H31.5V11.8125H35.4375ZM47.25 55.125H51.1875V63H47.25V55.125ZM47.25 47.25H55.125V51.1875H47.25V47.25ZM43.3125 51.1875H47.25V55.125H43.3125V51.1875ZM39.375 47.25H43.3125V51.1875H39.375V47.25ZM55.125 39.375V43.3125H59.0625V47.25H63V39.375H59.0625H55.125ZM59.0625 51.1875H55.125V63H63V55.125H59.0625V51.1875ZM39.375 39.375V43.3125H51.1875V35.4375H43.3125V39.375H39.375ZM47.25 27.5625V31.5H55.125V35.4375H63V27.5625H55.125H47.25Z" fill="white"/>
</g>
<defs>
<clipPath id="clip0_8_1025">
<rect width="63" height="63" fill="white"/>
</clipPath>
</defs>
</svg>
