<svg width="313" height="53" viewBox="0 0 313 53" fill="none" xmlns="http://www.w3.org/2000/svg">
<path d="M0 43.4038L5.04966 40.742C6.00155 43.1469 7.27848 44.8864 8.88044 45.9604C10.4824 47.0345 12.5603 47.5715 15.1142 47.5715C17.343 47.5715 19.1075 47.1278 20.4076 46.2406C21.731 45.33 22.3926 44.1276 22.3926 42.6333C22.3926 40.9755 21.731 39.6913 20.4076 38.7807C19.1075 37.8468 16.7974 37.1463 13.4774 36.6794C5.72295 35.5353 1.84574 32.2782 1.84574 26.908C1.84574 24.1762 2.98336 21.9581 5.25861 20.2537C7.60351 18.4792 10.5288 17.592 14.0346 17.592C20.0013 17.592 24.0642 20.1019 26.2234 25.1219L21.4524 27.7836C20.2915 24.328 17.8189 22.6002 14.0346 22.6002C12.154 22.6002 10.5869 23.0088 9.33317 23.826C8.10267 24.6199 7.48743 25.6705 7.48743 26.9781C7.48743 28.4257 8.16072 29.5347 9.50729 30.3052C10.8539 31.0757 13.1988 31.6945 16.542 32.1614C24.4357 33.2355 28.3826 36.5977 28.3826 42.248C28.3826 45.3767 27.0824 47.9567 24.4821 49.988C21.9051 51.996 18.6895 53 14.8356 53C11.0976 53 7.94016 52.1478 5.36309 50.4433C2.80924 48.7155 1.02154 46.369 0 43.4038Z" fill="#1F1E1E"/>
<path d="M34.9158 47.9917C31.7351 44.6296 30.1447 40.4035 30.1447 35.3135C30.1447 30.2235 31.7351 25.9974 34.9158 22.6352C38.0965 19.273 42.2059 17.592 47.2439 17.592C50.6104 17.592 53.6053 18.3741 56.2288 19.9385C58.8523 21.4795 60.8722 23.5925 62.2884 26.2776C63.7279 28.9627 64.4476 31.9746 64.4476 35.3135C64.4476 40.3801 62.834 44.5945 59.6069 47.9567C56.3797 51.3189 52.2588 53 47.2439 53C42.2059 53 38.0965 51.3306 34.9158 47.9917ZM58.1094 35.3135C58.1094 31.7178 57.0879 28.8226 55.0448 26.6278C53.0714 24.3397 50.4711 23.1956 47.2439 23.1956C44.1097 23.1956 41.521 24.328 39.4779 26.5928C37.4348 28.8576 36.4133 31.7645 36.4133 35.3135C36.4133 38.8625 37.4348 41.7694 39.4779 44.0342C41.521 46.299 44.1097 47.4314 47.2439 47.4314C50.4246 47.4314 53.0249 46.3106 55.0448 44.0692C57.0879 41.8044 58.1094 38.8858 58.1094 35.3135Z" fill="#1F1E1E"/>
<path d="M91.4581 18.2924H97.6569V52.2995H91.4581V46.5558C90.274 48.5871 88.7301 50.1748 86.8263 51.3189C84.9457 52.4396 82.7982 53 80.3836 53C76.6225 53 73.6624 51.8909 71.5032 49.6728C69.344 47.4314 68.2644 44.2443 68.2644 40.1116V18.2924H74.3937V38.6757C74.3937 41.6176 75.0438 43.8357 76.3439 45.33C77.644 46.8243 79.5362 47.5715 82.0204 47.5715C84.76 47.5715 87.012 46.5441 88.7765 44.4895C90.5642 42.4348 91.4581 39.7264 91.4581 36.3642V18.2924Z" fill="#1F1E1E"/>
<path d="M109.693 52.2995H103.563V18.2924H109.693V23.826C110.877 21.8414 112.432 20.3121 114.359 19.238C116.309 18.1406 118.469 17.592 120.837 17.592C124.482 17.592 127.372 18.7127 129.508 20.9541C131.667 23.1723 132.747 26.2543 132.747 30.2002V52.2995H126.548V32.0564C126.548 29.1145 125.875 26.873 124.528 25.332C123.182 23.791 121.278 23.0205 118.817 23.0205C116.193 23.0205 114.011 24.0011 112.27 25.9624C110.552 27.9003 109.693 30.4687 109.693 33.6674V52.2995Z" fill="#1F1E1E"/>
<path d="M136.668 35.5236C136.668 30.2469 138.131 25.9391 141.056 22.6002C143.981 19.2614 147.743 17.592 152.34 17.592C154.917 17.592 157.203 18.199 159.2 19.4131C161.22 20.6273 162.787 22.3084 163.902 24.4564V2.07685H170.1V52.2995H164.18V46.2056C163.019 48.2836 161.406 49.9413 159.339 51.1788C157.273 52.3929 154.986 53 152.479 53C147.812 53 144.005 51.389 141.056 48.1669C138.131 44.9214 136.668 40.707 136.668 35.5236ZM164.18 35.4536C164.18 31.8579 163.101 28.916 160.941 26.6278C158.782 24.3397 156.298 23.1956 153.489 23.1956C150.61 23.1956 148.102 24.328 145.967 26.5928C143.854 28.8343 142.797 31.7879 142.797 35.4536C142.797 39.1426 143.842 42.0729 145.932 44.2443C148.044 46.4157 150.563 47.5014 153.489 47.5014C154.835 47.5014 156.135 47.2329 157.389 46.6959C158.666 46.1355 159.804 45.3534 160.802 44.3494C161.824 43.3454 162.636 42.0729 163.24 40.5319C163.867 38.9909 164.18 37.2981 164.18 35.4536Z" fill="#1F1E1E"/>
<path d="M179.629 52.2995V23.5458H172.072V18.2924H179.629V13.1441C179.629 9.52503 180.627 6.66484 182.624 4.56347C184.643 2.43875 187.464 1.3764 191.086 1.3764C194.708 1.3764 197.482 2.28699 199.409 4.10817C201.336 5.92936 202.3 8.36928 202.3 11.4279C202.3 12.1984 202.277 12.7238 202.23 13.004H196.449L196.519 11.7081C196.519 10.0971 196.031 8.84793 195.056 7.96068C194.081 7.05009 192.758 6.59479 191.086 6.59479C187.534 6.59479 185.758 8.82458 185.758 13.2841V18.2924H195.3V23.5458H185.758V52.2995H179.629Z" fill="#1F1E1E"/>
<path d="M222.067 18.2924H228.266V52.2995H222.067V46.5558C220.883 48.5871 219.339 50.1748 217.435 51.3189C215.554 52.4396 213.407 53 210.992 53C207.231 53 204.271 51.8909 202.112 49.6728C199.953 47.4314 198.873 44.2443 198.873 40.1116V18.2924H205.002V38.6757C205.002 41.6176 205.652 43.8357 206.952 45.33C208.253 46.8243 210.145 47.5715 212.629 47.5715C215.369 47.5715 217.621 46.5441 219.385 44.4895C221.173 42.4348 222.067 39.7264 222.067 36.3642V18.2924Z" fill="#1F1E1E"/>
<path d="M231.769 43.4038L236.819 40.742C237.771 43.1469 239.047 44.8864 240.649 45.9604C242.251 47.0345 244.329 47.5715 246.883 47.5715C249.112 47.5715 250.876 47.1278 252.177 46.2406C253.5 45.33 254.162 44.1276 254.162 42.6333C254.162 40.9755 253.5 39.6913 252.177 38.7807C250.876 37.8468 248.566 37.1463 245.246 36.6794C237.492 35.5353 233.615 32.2782 233.615 26.908C233.615 24.1762 234.752 21.9581 237.028 20.2537C239.372 18.4792 242.298 17.592 245.804 17.592C251.77 17.592 255.833 20.1019 257.992 25.1219L253.221 27.7836C252.06 24.328 249.588 22.6002 245.804 22.6002C243.923 22.6002 242.356 23.0088 241.102 23.826C239.872 24.6199 239.256 25.6705 239.256 26.9781C239.256 28.4257 239.93 29.5347 241.276 30.3052C242.623 31.0757 244.968 31.6945 248.311 32.1614C256.205 33.2355 260.152 36.5977 260.152 42.248C260.152 45.3767 258.851 47.9567 256.251 49.988C253.674 51.996 250.459 53 246.605 53C242.867 53 239.709 52.1478 237.132 50.4433C234.578 48.7155 232.79 46.369 231.769 43.4038Z" fill="#1F1E1E"/>
<path d="M288.729 39.9715L294.057 42.0379C292.897 45.5635 291.039 48.2719 288.485 50.1632C285.931 52.0544 282.751 53 278.943 53C273.928 53 269.831 51.3656 266.65 48.0968C263.492 44.828 261.914 40.4852 261.914 35.0683C261.914 31.8229 262.575 28.881 263.899 26.2426C265.245 23.5808 267.149 21.4795 269.61 19.9385C272.094 18.3741 274.904 17.592 278.038 17.592C282.565 17.592 286.198 18.8995 288.938 21.5145C291.701 24.0828 293.082 27.5968 293.082 32.0564C293.082 33.5507 292.943 34.9399 292.664 36.2241H268.182C268.205 39.7964 269.227 42.5866 271.247 44.5945C273.267 46.5792 275.832 47.5715 278.943 47.5715C284.051 47.5715 287.313 45.0382 288.729 39.9715ZM268.182 31.7762H286.953L287.023 30.7955C287.023 28.414 286.164 26.5228 284.446 25.1219C282.751 23.7209 280.592 23.0205 277.968 23.0205C275.345 23.0205 273.127 23.8143 271.316 25.402C269.529 26.9664 268.484 29.0911 268.182 31.7762Z" fill="#1F1E1E"/>
<path d="M299.679 6.69811C299.679 4.84968 300.323 3.27366 301.609 1.97003C302.906 0.656677 304.482 0 306.34 0C308.197 0 309.769 0.656677 311.056 1.97003C312.352 3.27366 313 4.84968 313 6.69811C313 7.90445 312.705 9.02323 312.115 10.0545C311.534 11.076 310.732 11.8883 309.706 12.4915C308.69 13.0849 307.568 13.3816 306.34 13.3816C305.111 13.3816 303.984 13.0849 302.959 12.4915C301.943 11.8883 301.14 11.076 300.55 10.0545C299.97 9.02323 299.679 7.90445 299.679 6.69811ZM310.127 10.5214C311.143 9.48048 311.651 8.20604 311.651 6.69811C311.651 5.19018 311.143 3.91574 310.127 2.87479C309.111 1.83383 307.849 1.31335 306.34 1.31335C304.831 1.31335 303.563 1.83383 302.538 2.87479C301.522 3.91574 301.014 5.19018 301.014 6.69811C301.014 8.20604 301.522 9.48048 302.538 10.5214C303.563 11.5527 304.831 12.0683 306.34 12.0683C307.849 12.0683 309.111 11.5527 310.127 10.5214ZM303.626 10.4339V2.93316H306.993C307.699 2.93316 308.27 3.118 308.705 3.48769C309.15 3.85737 309.372 4.31948 309.372 4.87401C309.372 5.86632 308.884 6.54245 307.907 6.90241C308.739 7.16508 309.155 7.77312 309.155 8.72651C309.155 9.1643 309.179 9.48534 309.227 9.68964C309.276 9.89394 309.382 10.0788 309.547 10.2442V10.4339H308.008C307.805 10.035 307.704 9.46588 307.704 8.72651C307.704 8.20117 307.592 7.83149 307.37 7.61746C307.157 7.40343 306.804 7.29642 306.311 7.29642H304.976V10.4339H303.626ZM304.976 6.0998H306.819C307.592 6.0998 307.979 5.76903 307.979 5.10749C307.979 4.42649 307.592 4.08599 306.819 4.08599H304.976V6.0998Z" fill="#1F1E1E"/>
</svg>
